# xmcd
#
# Track frame offsets: 
#        150
#        16590
#        34715
#        53520
#        77687
#        94712
#        109740
#        128720
#        145070
#        166295
#
# Disc length: 2431 seconds
#
# Revision: 4
# Processed by: cddbd v1.5.2PL0 Copyright (c) Steve Scherf et al.
# Submitted via: ExactAudioCopy v1.1
#
DISCID=6c097d0a
DTITLE=Dance With A Stranger - To
DYEAR=1989
DGENRE=Pop/Funk
TTITLE0=Do what you wanna do
TTITLE1=The invisible man
TTITLE2=Stop looking for love (through blue eyes)
TTITLE3=African road
TTITLE4=Fool's paradise
TTITLE5=Explosion of time
TTITLE6=Another day
TTITLE7=Hey Joann
TTITLE8=Show what you got
TTITLE9=Little woman
EXTD=
EXTT0=
EXTT1=
EXTT2=
EXTT3=
EXTT4=
EXTT5=
EXTT6=
EXTT7=
EXTT8=
EXTT9=
PLAYORDER=
